<svg id="Capa_1" data-name="Capa 1" xmlns="http://www.w3.org/2000/svg" xmlns:xlink="http://www.w3.org/1999/xlink" viewBox="0 0 375 372.31"><defs><style>.cls-1,.cls-2{fill-rule:evenodd;}.cls-1{fill:url(#Degradado_sin_nombre_12);}.cls-2{fill:url(#Degradado_sin_nombre_13);}.cls-3{opacity:0.56;fill:url(#Degradado_sin_nombre_22);}.cls-3,.cls-4,.cls-5,.cls-6,.cls-7,.cls-8{isolation:isolate;}.cls-4,.cls-5,.cls-6,.cls-7{opacity:0.39;}.cls-4{fill:url(#Degradado_sin_nombre_27);}.cls-5{fill:url(#Degradado_sin_nombre_25);}.cls-6{fill:url(#Degradado_sin_nombre_23);}.cls-7{fill:url(#Degradado_sin_nombre_26);}.cls-8{opacity:0.5;fill:url(#Degradado_sin_nombre_24);}</style><linearGradient id="Degradado_sin_nombre_12" x1="-107.52" y1="608.21" x2="-109.79" y2="606.08" gradientTransform="matrix(375, 0, 0, -313.66, 41140, 190439.14)" gradientUnits="userSpaceOnUse"><stop offset="0" stop-color="#52ffb1"/><stop offset="0.07" stop-color="#52f9ae"/><stop offset="1" stop-color="#52ffb1" stop-opacity="0"/></linearGradient><linearGradient id="Degradado_sin_nombre_13" x1="-108.12" y1="608" x2="-110.3" y2="605.83" gradientTransform="translate(-40985 156842.16) rotate(180) scale(375 258.23)" gradientUnits="userSpaceOnUse"><stop offset="0" stop-color="#ff52c1"/><stop offset="0" stop-color="#52f9ae"/><stop offset="1" stop-color="#52ffb1" stop-opacity="0"/></linearGradient><linearGradient id="Degradado_sin_nombre_22" x1="-101.16" y1="604.65" x2="-99.92" y2="603.25" gradientTransform="matrix(0, 28, 28, 0, -16586.43, 3003.55)" gradientUnits="userSpaceOnUse"><stop offset="0" stop-color="#52ffb1"/><stop offset="1" stop-color="#ffdf52"/></linearGradient><linearGradient id="Degradado_sin_nombre_27" x1="-82.82" y1="598.04" x2="-81.58" y2="596.63" gradientTransform="matrix(0, 9, 9, 0, -5256.46, 1108.62)" gradientUnits="userSpaceOnUse"><stop offset="0" stop-color="#52ff94"/><stop offset="1" stop-color="#ffdf52"/></linearGradient><linearGradient id="Degradado_sin_nombre_25" x1="-96.33" y1="602.91" x2="-95.09" y2="601.51" gradientTransform="matrix(0, 18, 18, 0, -10680.61, 2072.48)" xlink:href="#Degradado_sin_nombre_22"/><linearGradient id="Degradado_sin_nombre_23" x1="-92.47" y1="601.52" x2="-91.23" y2="600.11" gradientTransform="matrix(0, 14, 14, 0, -8276.05, 1376.65)" xlink:href="#Degradado_sin_nombre_22"/><linearGradient id="Degradado_sin_nombre_26" x1="-95.54" y1="602.63" x2="-94.3" y2="601.22" gradientTransform="matrix(0, 17, 17, 0, -9912.92, 1962.28)" xlink:href="#Degradado_sin_nombre_27"/><linearGradient id="Degradado_sin_nombre_24" x1="-104.06" y1="605.7" x2="-102.81" y2="604.29" gradientTransform="matrix(0, 42, 42, 0, -25359.09, 4638.25)" xlink:href="#Degradado_sin_nombre_22"/></defs><title>bg-mobile3</title><path class="cls-1" d="M0,265.7,319.69,0H375V73.61L0,313.66Z" transform="translate(0 0)"/><path class="cls-2" d="M375,318.69,0,102V221.18L375,360.23Z" transform="translate(0 0)"/><rect class="cls-3" x="318.8" y="166.8" width="28" height="28" rx="3" transform="translate(-30.37 288.28) rotate(-45)"/><rect class="cls-4" x="117.86" y="361.86" width="9" height="9" rx="1" transform="translate(-223.22 193.83) rotate(-45)"/><rect class="cls-5" x="155.73" y="335.73" width="18" height="18" rx="1" transform="translate(-195.51 217.45) rotate(-45)"/><rect class="cls-6" x="132.73" y="79.9" width="14" height="14" rx="1" transform="translate(-20.52 124.26) rotate(-45)"/><rect class="cls-7" x="316.52" y="335.52" width="17" height="17" rx="1" transform="translate(-148.06 330.59) rotate(-45)"/><rect class="cls-8" x="42.6" y="261.5" width="42" height="42" rx="3" transform="translate(-181.13 127.71) rotate(-45)"/></svg>